<?xml version="1.0" encoding="iso-8859-1"?>
<!-- Generator: Adobe Illustrator 19.0.0, SVG Export Plug-In . SVG Version: 6.00 Build 0)  -->
<svg version="1.1" id="Layer_1" xmlns="http://www.w3.org/2000/svg" xmlns:xlink="http://www.w3.org/1999/xlink" x="0px" y="0px"
	 viewBox="0 0 297 297" style="enable-background:new 0 0 297 297;" xml:space="preserve">
<g>
	<g>
		<g>
			<circle style="fill:#F86E51;" cx="148.5" cy="148.5" r="148.5"/>
		</g>
	</g>
	<path style="fill:#E04332;" d="M296.593,137.491l-76.76-76.76L54.406,222.446l73.04,73.061c6.879,0.977,13.906,1.493,21.054,1.493
		c82.014,0,148.5-66.486,148.5-148.5C297,144.797,296.86,141.126,296.593,137.491z"/>
	<g>
		<path style="fill:#662621;" d="M214.5,66c-26.833-28.5-79.333-23.5-84.403,17.675c-5.675,46.094-27.818,58.816-62.256,72.462
			c-36.938,14.636-26.931,81.915,46.539,77.769C210.167,228.5,294.978,151.478,214.5,66z"/>
		<path style="fill:#935733;" d="M107.892,241.592c-42.398,0-62.769-23.197-67.339-43.942c-4.624-20.993,5.461-40.931,24.525-48.485
			c32.313-12.803,52.313-23.661,57.576-66.406c2.359-19.169,14.063-33.553,32.111-39.461c22.248-7.279,48.447-0.226,65.195,17.562
			c40.325,42.831,37.762,79.469,28.509,102.662c-8.56,21.458-26.357,40.305-51.468,54.501c-23.736,13.42-52.929,21.72-82.199,23.372
			C112.439,241.526,110.132,241.592,107.892,241.592z M172.7,55.498c-4.545,0-9.03,0.667-13.268,2.055
			c-12.473,4.083-20.247,13.686-21.892,27.038c-2.887,23.445-10.022,40.211-22.458,52.762
			c-11.046,11.149-25.209,18.121-44.479,25.757c-14.168,5.614-17.944,19.772-15.401,31.313
			c3.543,16.089,21.068,34.137,58.755,31.994c56.183-3.17,105.767-31.32,120.581-68.455c10.95-27.45,2.133-57.473-25.499-86.82
			C199.632,61.149,185.925,55.498,172.7,55.498z"/>
	</g>
	<g>
		<path style="fill:#591F1C;" d="M214.5,66c-18.079-19.202-47.808-23.194-66.833-11.163v174.244
			C227.924,210.151,285.455,141.363,214.5,66z"/>
		<path style="fill:#7C4529;" d="M219.961,60.858c-16.748-17.787-42.947-24.841-65.195-17.562c-2.494,0.817-4.854,1.811-7.099,2.941
			v17.967c3.243-2.902,7.184-5.153,11.766-6.652c4.237-1.388,8.723-2.055,13.268-2.055c13.225,0,26.932,5.651,36.339,15.644
			c27.632,29.348,36.449,59.37,25.499,86.82c-11.755,29.465-45.408,53.259-86.871,63.42v15.369
			c17.693-4.018,34.57-10.381,49.335-18.729c25.11-14.196,42.908-33.043,51.468-54.501
			C257.723,140.327,260.286,103.689,219.961,60.858z"/>
	</g>
	<g>
		<circle style="fill:#E8A89E;" cx="179.29" cy="107.047" r="18.997"/>
	</g>
</g>
<g>
</g>
<g>
</g>
<g>
</g>
<g>
</g>
<g>
</g>
<g>
</g>
<g>
</g>
<g>
</g>
<g>
</g>
<g>
</g>
<g>
</g>
<g>
</g>
<g>
</g>
<g>
</g>
<g>
</g>
</svg>
